<svg width="36" height="36" viewBox="0 0 36 36" fill="none" xmlns="http://www.w3.org/2000/svg">
<path fill-rule="evenodd" clip-rule="evenodd" d="M2.32286 33.0004V16.6123H0.0864258V32.972C0.414017 32.86 0.765907 32.7942 1.1502 32.7942C1.57408 32.7951 1.96377 32.8653 2.32286 33.0004Z" fill="#888888"/>
<path opacity="0.298" fill-rule="evenodd" clip-rule="evenodd" d="M2.32288 20V23.6844C4.32804e-05 23.6844 0.0873407 20.1236 0.0873407 20.1236V20H2.32288Z" fill="#222222"/>
<path fill-rule="evenodd" clip-rule="evenodd" d="M2.49476 11.3066H0.0864258V11.9876H2.49476V11.3066Z" fill="#40606B"/>
<path fill-rule="evenodd" clip-rule="evenodd" d="M14.3997 5.16644V18.8301L7.19897 20.0729V3.9248L14.3997 5.16758V5.16644Z" fill="url(#paint0_linear_919_7904)"/>
<path fill-rule="evenodd" clip-rule="evenodd" d="M28.7999 7.65098V16.347L21.6001 17.5863V6.4082L28.7999 7.65098Z" fill="url(#paint1_linear_919_7904)"/>
<path fill-rule="evenodd" clip-rule="evenodd" d="M7.1998 3.92563V20.0726L5.22076 20.4119L1.97995 20.9738C0.890075 21.161 0 20.2304 0 18.8991V5.0969C0 3.77809 0.876576 2.84629 1.95835 3.02107L1.97995 3.02334L5.28195 3.59422L5.32155 3.6033L7.1989 3.92563H7.1998Z" fill="url(#paint2_linear_919_7904)"/>
<path fill-rule="evenodd" clip-rule="evenodd" d="M21.6004 6.40765V17.5858L14.3997 18.8297V5.16602L21.6004 6.40879V6.40765Z" fill="url(#paint3_linear_919_7904)"/>
<path fill-rule="evenodd" clip-rule="evenodd" d="M35.9992 11.307V12.686C35.9992 13.9731 35.164 15.1772 34.1218 15.4235L34.0804 15.4337L34.021 15.4462L30.7784 16.0058L30.7559 16.0069L28.8003 16.3474V7.65137L30.7775 7.99299H30.7784L34.021 8.55138C35.1091 8.73638 36.0001 9.97915 36.0001 11.307H35.9992Z" fill="url(#paint4_linear_919_7904)"/>
<path opacity="0.098" fill-rule="evenodd" clip-rule="evenodd" d="M35.9963 12.6863C35.9963 13.9711 35.1638 15.1787 34.1217 15.4238L34.0803 15.4363L34.0146 15.4477L30.7782 16.0049L30.7548 16.0072L28.7974 16.3454L21.5967 17.5871L14.3978 18.8332L7.1998 20.0737L5.22076 20.4108L1.97995 20.976C0.888275 21.1633 0 20.2304 0 18.9002V11.9997C0.0899975 3.00065 5.00026 18.8071 35.9963 12.6875V12.6863Z" fill="#222222"/>
<defs>
<linearGradient id="paint0_linear_919_7904" x1="7.19897" y1="3.9248" x2="7.19897" y2="20.0729" gradientUnits="userSpaceOnUse">
<stop offset="0.01" stop-color="white"/>
<stop offset="0.99" stop-color="#DADADA"/>
</linearGradient>
<linearGradient id="paint1_linear_919_7904" x1="21.6001" y1="6.4082" x2="21.6001" y2="17.5863" gradientUnits="userSpaceOnUse">
<stop offset="0.01" stop-color="white"/>
<stop offset="0.99" stop-color="#DADADA"/>
</linearGradient>
<linearGradient id="paint2_linear_919_7904" x1="0.626527" y1="2.73687" x2="0.626527" y2="17.6023" gradientUnits="userSpaceOnUse">
<stop offset="0.01" stop-color="#F39200"/>
<stop offset="0.99" stop-color="#E6332A"/>
</linearGradient>
<linearGradient id="paint3_linear_919_7904" x1="14.0835" y1="2.73688" x2="14.0835" y2="17.6004" gradientUnits="userSpaceOnUse">
<stop offset="0.01" stop-color="#F39200"/>
<stop offset="0.99" stop-color="#E6332A"/>
</linearGradient>
<linearGradient id="paint4_linear_919_7904" x1="26.2457" y1="2.73595" x2="26.2457" y2="17.6025" gradientUnits="userSpaceOnUse">
<stop offset="0.01" stop-color="#F39200"/>
<stop offset="0.99" stop-color="#E6332A"/>
</linearGradient>
</defs>
</svg>
